<?xml version="1.0" encoding="utf-8"?>
<!-- Generator: Adobe Illustrator 15.0.0, SVG Export Plug-In . SVG Version: 6.00 Build 0)  -->
<!DOCTYPE svg PUBLIC "-//W3C//DTD SVG 1.1//EN" "http://www.w3.org/Graphics/SVG/1.1/DTD/svg11.dtd">
<svg version="1.1" id="Capa_1" xmlns="http://www.w3.org/2000/svg" xmlns:xlink="http://www.w3.org/1999/xlink" x="0px" y="0px"
	 width="512px" height="413.992px" viewBox="0 49.004 512 413.992" enable-background="new 0 49.004 512 413.992"
	 xml:space="preserve">
<g>
	<path d="M484.63,225.059c-20.38-70.019-43.361-106.197-43.731-106.846c-1.311-1.599-33.786-40.463-112.06-69.209l-10.344,28.16
		c37.237,13.676,63.655,30.36,78.185,41.14C353.303,105.351,301.702,97.418,256,97.418s-97.303,7.933-140.679,20.886
		c14.528-10.779,40.946-27.464,78.183-41.14l-10.343-28.16C104.89,77.75,72.414,116.614,71.104,118.213
		c-0.371,0.649-23.354,36.827-43.732,106.846C7.732,292.534,0.271,387.723,0,391.54c1.75,2.735,42,71.456,151.693,71.456
		l27.804-40.262c-31.149-8.271-60.853-21.609-88.043-39.709l16.623-24.973c43.865,29.196,95.016,44.631,147.923,44.631
		s104.059-15.435,147.924-44.631l16.623,24.973c-27.188,18.1-56.894,31.438-88.043,39.709l27.804,40.262
		C470,462.996,510.25,394.275,512,391.54C511.729,387.723,504.268,292.534,484.63,225.059z M186.642,303.54h-30v-50h30V303.54z
		 M355.358,303.54h-30v-50h30V303.54z"/>
</g>
</svg>
