<?xml version="1.0" encoding="utf-8"?>
<!-- Generator: Adobe Illustrator 15.0.0, SVG Export Plug-In . SVG Version: 6.00 Build 0)  -->
<!DOCTYPE svg PUBLIC "-//W3C//DTD SVG 1.1//EN" "http://www.w3.org/Graphics/SVG/1.1/DTD/svg11.dtd">
<svg version="1.1" id="Layer_1" xmlns="http://www.w3.org/2000/svg" xmlns:xlink="http://www.w3.org/1999/xlink" x="0px" y="0px"
	 width="34.057px" height="30.632px" viewBox="40 64.532 34.057 30.632" enable-background="new 40 64.532 34.057 30.632"
	 xml:space="preserve">
<g>
	<path d="M42.093,82.041l0.153-0.203l7.148-11.183c0.102-0.153,0.356-0.153,0.459,0.052c1.175,2.705,2.195,6.023,1.735,8.118
		c-0.204,0.867-0.766,2.042-1.43,3.063c-0.051,0.204-0.153,0.357-0.255,0.459c-0.052,0.051-0.104,0.104-0.256,0.104h-7.354
		C42.093,82.398,41.991,82.195,42.093,82.041z"/>
	<path d="M74.056,84.135v1.736c0,0.102-0.052,0.152-0.153,0.204c-0.563,0.255-2.502,1.124-3.269,2.246
		c-2.042,2.809-3.573,6.843-6.994,6.843H49.241c-5.104,0-9.241-4.138-9.241-9.293v-0.153c0-0.103,0.152-0.204,0.255-0.204h8.118
		c0.153,0,0.256,0.153,0.256,0.256c-0.052,0.51,0.052,1.072,0.255,1.531c0.512,1.021,1.532,1.531,2.554,1.531h3.981V85.77h-3.932
		c-0.204,0-0.306-0.205-0.204-0.409c0.052-0.051,0.104-0.103,0.153-0.204c0.408-0.562,0.868-1.327,1.43-2.245
		c0.408-0.613,0.715-1.328,1.021-1.992c0.051-0.103,0.102-0.203,0.152-0.408c0.051-0.204,0.153-0.408,0.204-0.613
		c0.051-0.151,0.103-0.306,0.153-0.459c0.152-0.562,0.204-1.174,0.204-1.838c0-0.204,0-0.511-0.052-0.766
		c0-0.256-0.103-0.563-0.103-0.817s-0.051-0.511-0.103-0.715c-0.052-0.408-0.103-0.715-0.204-1.123l-0.052-0.103
		c-0.051-0.203-0.103-0.511-0.203-0.716c-0.257-0.766-0.512-1.53-0.817-2.194c-0.103-0.308-0.204-0.563-0.306-0.867
		c-0.153-0.357-0.357-0.767-0.512-1.072c-0.052-0.153-0.152-0.307-0.204-0.46c-0.052-0.152-0.152-0.307-0.205-0.46
		c-0.051-0.152-0.151-0.255-0.203-0.356l-0.459-0.867c-0.052-0.104,0.051-0.308,0.152-0.256l3.013,0.867l0,0l0,0l0.408,0.104
		l0.408,0.102l0.204,0.052v-1.839c0-0.866,0.715-1.581,1.532-1.581c0.459,0,0.815,0.151,1.123,0.459
		c0.255,0.256,0.408,0.663,0.408,1.071v2.654l0.356,0.103c0,0,0.051,0,0.051,0.053c0.053,0.051,0.153,0.203,0.308,0.306
		c0.103,0.103,0.255,0.204,0.407,0.307c0.257,0.256,0.664,0.563,1.021,0.919c0.153,0.103,0.255,0.153,0.307,0.257
		c0.459,0.459,1.021,0.969,1.583,1.582c0.152,0.204,0.255,0.356,0.459,0.511c0.153,0.152,0.255,0.409,0.408,0.562
		c0.204,0.205,0.409,0.512,0.563,0.715c0.052,0.103,0.152,0.204,0.205,0.357c0.255,0.357,0.407,0.664,0.611,1.021
		c0.051,0.151,0.204,0.307,0.255,0.51c0.205,0.409,0.357,0.869,0.409,1.379c0.051,0.103,0.051,0.205,0.051,0.256l0,0
		c0.104,0.102,0.104,0.255,0.104,0.459c0.051,0.46,0,0.92-0.104,1.43c-0.051,0.205-0.103,0.357-0.152,0.613
		c-0.051,0.152-0.103,0.357-0.204,0.612c-0.153,0.356-0.408,0.767-0.612,1.123c-0.052,0.103-0.153,0.307-0.256,0.46
		c-0.153,0.151-0.255,0.255-0.307,0.408c-0.103,0.203-0.255,0.356-0.357,0.511c-0.152,0.152-0.255,0.356-0.408,0.511
		c-0.152,0.204-0.408,0.459-0.562,0.664c-0.103,0.102-0.204,0.255-0.357,0.357c-0.102,0.151-0.255,0.306-0.408,0.407
		c-0.152,0.152-0.307,0.357-0.511,0.459l-0.307,0.257c-0.051,0.051-0.103,0.051-0.153,0.051h-2.45v3.114h3.063
		c0.664,0,1.275-0.256,1.787-0.663c0.152-0.205,0.97-0.869,1.889-1.839c0.052-0.052,0.052-0.052,0.104-0.052l8.372-2.45
		C73.953,83.828,74.056,83.931,74.056,84.135z"/>
</g>
</svg>
