<?xml version="1.0" encoding="utf-8"?>
<!-- Generator: Adobe Illustrator 15.0.0, SVG Export Plug-In . SVG Version: 6.00 Build 0)  -->
<!DOCTYPE svg PUBLIC "-//W3C//DTD SVG 1.1//EN" "http://www.w3.org/Graphics/SVG/1.1/DTD/svg11.dtd">
<svg version="1.1" id="Layer_1" xmlns="http://www.w3.org/2000/svg" xmlns:xlink="http://www.w3.org/1999/xlink" x="0px" y="0px"
	 width="24px" height="19.504px" viewBox="0 0 24 19.504" enable-background="new 0 0 24 19.504" xml:space="preserve">
<path d="M24,2.309c-0.883,0.394-1.832,0.656-2.828,0.775c1.018-0.609,1.799-1.574,2.165-2.724c-0.95,0.563-2.005,0.974-3.127,1.194
	C19.313,0.598,18.032,0,16.616,0c-3.179,0-5.515,2.966-4.797,6.045C7.728,5.84,4.1,3.88,1.671,0.901
	c-1.29,2.213-0.669,5.108,1.523,6.574C2.388,7.449,1.628,7.228,0.965,6.859c-0.054,2.281,1.581,4.415,3.949,4.89
	c-0.693,0.188-1.452,0.231-2.224,0.084c0.626,1.956,2.444,3.379,4.6,3.419C5.22,16.875,2.612,17.6,0,17.292
	c2.179,1.397,4.768,2.212,7.548,2.212c9.142,0,14.308-7.721,13.995-14.646C22.505,4.163,23.34,3.296,24,2.309z"/>
</svg>
